{"title":"12 Years a Slave 2013 DVDScr H264 AAC-ROB","uid":9420343,"size":1798673910,"categoryP":"video","categoryS":"movies","magnet":"?xt=urn:btih:00a5b874e7e16d51ee4ec2a51a69fd11816e8de5&amp;dn=12+Years+a+Slave+2013+DVDScr+H264+AAC-ROB&amp;tr=udp%3A%2F%2Ftracker.openbittorrent.com%3A80&amp;tr=udp%3A%2F%2Fopen.demonii.com%3A1337&amp;tr=udp%3A%2F%2Ftracker.coppersurfer.tk%3A6969&amp;tr=udp%3A%2F%2Fexodus.desync.com%3A6969","seeders":1,"leechers":2,"uploader":"HeroMaster","files":-1,"time":1388572626,"description":"::::::: ROB PRESENTS :::::::\n\n\n:::: 12 Years a Slave 2013 DVDScr H264 AAC-ROB ::::\n\n\n::Information::\n\n\nFormat : MPEG-4\nFormat profile : Base Media\nCodec ID : isom\nFile size : 1.66 GiB\nDuration : 2h 14mn\nOverall bit rate mode : Variable\nOverall bit rate : 1 767 Kbps\nMovie name : 12 YEARS A SLAVE\nEncoder : Nathaniel Mead\nRecorded date : 2013\nEncoded date : UTC 2013-12-31 23:28:03\nTagged date : UTC 2013-12-31 23:28:03\nWriting application : Lavf51.12.1\nCopyright : Nope\n\n\n::Video::\n\n\nID : 1\nFormat : AVC\nFormat/Info : Advanced Video Codec\nFormat profile : &lt;a class=&quot;__cf_email__&quot; href=&quot;/cdn-cgi/l/email-protection&quot; data-cfemail=&quot;2d6f4c5e48414443486d611e031d&quot;&gt;[email&amp;#160;protected]&lt;/a&gt;&lt;script cf-hash='f9e31' type=&quot;text/javascript&quot;&gt;\n/* &lt;![CDATA[ */!function(){try{var t=&quot;currentScript&quot;in document?document.currentScript:function(){for(var t=document.getElementsByTagName(&quot;script&quot;),e=t.length;e--;)if(t[e].getAttribute(&quot;cf-hash&quot;))return t[e]}();if(t&amp;&amp;t.previousSibling){var e,r,n,i,c=t.previousSibling,a=c.getAttribute(&quot;data-cfemail&quot;);if(a){for(e=&quot;&quot;,r=parseInt(a.substr(0,2),16),n=2;a.length-n;n+=2)i=parseInt(a.substr(n,2),16)^r,e+=String.fromCharCode(i);e=document.createTextNode(e),c.parentNode.replaceChild(e,c)}}}catch(u){}}();/* ]]&gt; */&lt;/script&gt;\nFormat settings, CABAC : No\nFormat settings, ReFrames : 1 frame\nFormat settings, GOP : M=1, N=12\nCodec ID : avc1\nCodec ID/Info : Advanced Video Coding\nDuration : 2h 14mn\nBit rate : 1 507 Kbps\nWidth : 720 pixels\nHeight : 304 pixels\nDisplay aspect ratio : 2.35:1\nFrame rate mode : Constant\nFrame rate : 23.976 fps\nColor space : YUV\nChroma subsampling : 4:2:0\nBit depth : 8 bits\nScan type : Progressive\nBits/(Pixel*Frame) : 0.287\nStream size : 1.41 GiB (85%)\n\n\n::Audio::\n\n\nID : 2\nFormat : AAC\nFormat/Info : Advanced Audio Codec\nFormat profile : LC\nCodec ID : 40\nDuration : 2h 14mn\nBit rate mode : Variable\nBit rate : 256 Kbps\nOriginal Channel count : 6 channels\nChannel positions : Front: L C R, Side: L R, LFE\nSampling rate : 44.1 KHz\nCompression mode : Lossy\nStream size : 245 MiB (14%)\n\n\n::IMDB::\n\n &lt;a href=&quot;\nhttp://www.imdb.com/title/tt2024544/&quot; rel=&quot;nofollow&quot; target=&quot;_NEW&quot;&gt;\nhttp://www.imdb.com/title/tt2024544/&lt;/a&gt;\n\n\n::Greetz and Respect::\n\n\nALL CREDIT Goes to CM8 for the Source and ROB for Distribution.\n\n\n::Poster::\n\n &lt;a href=&quot;\nhttp://i.imgur.com/r0lHXpi.jpg&quot; rel=&quot;nofollow&quot; target=&quot;_NEW&quot;&gt;\nhttp://i.imgur.com/r0lHXpi.jpg&lt;/a&gt;\n\n\n::Screenshots::\n\n &lt;a href=&quot;\nhttp://i.imgur.com/HItSYGz.png&quot; rel=&quot;nofollow&quot; target=&quot;_NEW&quot;&gt;\nhttp://i.imgur.com/HItSYGz.png&lt;/a&gt;\n\n\nSEED AND ENJOY!","torrent":{"xt":"urn:btih:00a5b874e7e16d51ee4ec2a51a69fd11816e8de5","amp;dn":"12+Years+a+Slave+2013+DVDScr+H264+AAC-ROB","amp;tr":["udp%3A%2F%2Ftracker.openbittorrent.com%3A80","udp%3A%2F%2Fopen.demonii.com%3A1337","udp%3A%2F%2Ftracker.coppersurfer.tk%3A6969","udp%3A%2F%2Fexodus.desync.com%3A6969"],"infoHash":"00a5b874e7e16d51ee4ec2a51a69fd11816e8de5","infoHashBuffer":{"type":"Buffer","data":[0,165,184,116,231,225,109,81,238,78,194,165,26,105,253,17,129,110,141,229]},"announce":[],"urlList":[]}}